<svg width="24" height="24" viewBox="0 0 24 24" fill="none" xmlns="http://www.w3.org/2000/svg">
<path fill-rule="evenodd" clip-rule="evenodd" d="M1.19995 12C1.19995 6.01086 6.01086 1.19995 12 1.19995C17.989 1.19995 22.8 6.01086 22.8 12C22.8 17.989 17.989 22.8 12 22.8C6.01086 22.8 1.19995 17.989 1.19995 12ZM3.16359 12C3.16359 16.909 7.09086 20.8363 12 20.8363C16.909 20.8363 20.8363 16.909 20.8363 12C20.8363 7.09086 16.909 3.16359 12 3.16359C7.09086 3.16359 3.16359 7.09086 3.16359 12ZM12.9818 12V15.9272C12.9818 16.5163 12.589 16.909 12 16.909C11.4109 16.909 11.0181 16.5163 11.0181 15.9272V12C11.0181 11.4109 11.4109 11.0181 12 11.0181C12.589 11.0181 12.9818 11.4109 12.9818 12ZM12.9818 8.07268C12.9818 7.77813 12.8836 7.58177 12.6872 7.38541C12.4909 7.18904 12.0981 7.09086 11.8036 7.09086C11.7471 7.14732 11.7231 7.17131 11.6943 7.18151C11.6729 7.18904 11.6489 7.18904 11.6072 7.18904C11.5581 7.18904 11.5336 7.21359 11.509 7.23813C11.4845 7.26268 11.46 7.28722 11.4109 7.28722L11.3127 7.38541C11.1163 7.58177 11.0181 7.77813 11.0181 8.07268C11.0181 8.36722 11.1163 8.56359 11.3127 8.75995C11.3127 8.75995 11.3127 8.85813 11.4109 8.85813C11.46 8.85813 11.4845 8.88268 11.509 8.90723C11.5336 8.93177 11.5581 8.95632 11.6072 8.95632C11.6637 9.01277 11.6877 9.03677 11.7165 9.04696C11.7379 9.0545 11.7619 9.0545 11.8036 9.0545H12C12.2945 9.0545 12.4909 8.95632 12.6872 8.75995C12.8836 8.56359 12.9818 8.36722 12.9818 8.07268Z" fill="white"/>
</svg>
