<svg width="20" height="20" viewBox="0 0 20 20" fill="none" xmlns="http://www.w3.org/2000/svg">
<path d="M5.83333 14.1667V8.33333M17.5 6.66667V13.3333C17.5 14.4384 17.061 15.4982 16.2796 16.2796C15.4982 17.061 14.4384 17.5 13.3333 17.5H6.66667C5.5616 17.5 4.50179 17.061 3.72039 16.2796C2.93899 15.4982 2.5 14.4384 2.5 13.3333V6.66667C2.5 5.5616 2.93899 4.50179 3.72039 3.72039C4.50179 2.93899 5.5616 2.5 6.66667 2.5H13.3333C14.4384 2.5 15.4982 2.93899 16.2796 3.72039C17.061 4.50179 17.5 5.5616 17.5 6.66667Z" stroke="#CBCEFA" stroke-linecap="round" stroke-linejoin="round"/>
<path d="M9.16659 14.1667V11.4584M9.16659 8.33335V11.4584M9.16659 11.4584C9.16659 8.33335 14.1666 8.33335 14.1666 11.4584V14.1667M5.83325 5.84169L5.84159 5.83252" stroke="#CBCEFA" stroke-linecap="round" stroke-linejoin="round"/>
</svg>
