<svg width="24" height="24" viewBox="0 0 24 24" fill="none" xmlns="http://www.w3.org/2000/svg">
<rect width="24" height="24" rx="12" fill="#F6851B" fill-opacity="0.2"/>
<path d="M18.2712 5.2395L12.8381 9.27475L13.8429 6.89401L18.2712 5.2395Z" fill="#E2761B" stroke="#E2761B" stroke-width="0.0546041" stroke-linecap="round" stroke-linejoin="round"/>
<path d="M5.72715 5.2395L11.1166 9.31297L10.161 6.89401L5.72715 5.2395ZM16.3149 14.5932L14.8679 16.8101L17.9639 17.6619L18.854 14.6423L16.3149 14.5932ZM5.15381 14.6423L6.0384 17.6619L9.13445 16.8101L7.68744 14.5932L5.15381 14.6423Z" fill="#E4761B" stroke="#E4761B" stroke-width="0.0546041" stroke-linecap="round" stroke-linejoin="round"/>
<path d="M8.95845 10.8483L8.0957 12.1534L11.1699 12.2899L11.0607 8.98634L8.95845 10.8483ZM15.0359 10.8483L12.9063 8.94812L12.8353 12.2899L15.9041 12.1534L15.0359 10.8483ZM9.13318 16.8111L10.9788 15.9101L9.38436 14.6652L9.13318 16.8111ZM13.0155 15.9101L14.8666 16.8111L14.61 14.6652L13.0155 15.9101Z" fill="#E4761B" stroke="#E4761B" stroke-width="0.0546041" stroke-linecap="round" stroke-linejoin="round"/>
<path d="M14.8687 16.8103L13.0176 15.9093L13.165 17.1161L13.1487 17.6239L14.8687 16.8103ZM9.13525 16.8103L10.8553 17.6239L10.8444 17.1161L10.9809 15.9093L9.13525 16.8103Z" fill="#D7C1B3" stroke="#D7C1B3" stroke-width="0.0546041" stroke-linecap="round" stroke-linejoin="round"/>
<path d="M10.8814 13.8666L9.34155 13.4134L10.4282 12.9165L10.8814 13.8666ZM13.1147 13.8666L13.5679 12.9165L14.66 13.4134L13.1147 13.8666Z" fill="#233447" stroke="#233447" stroke-width="0.0546041" stroke-linecap="round" stroke-linejoin="round"/>
<path d="M9.13305 16.8106L9.39514 14.5936L7.68604 14.6428L9.13305 16.8106ZM14.6044 14.5936L14.8665 16.8106L16.3135 14.6428L14.6044 14.5936ZM15.904 12.1528L12.8352 12.2893L13.1191 13.8674L13.5724 12.9173L14.6644 13.4142L15.904 12.1528ZM9.34054 13.4142L10.4326 12.9173L10.8804 13.8674L11.1698 12.2893L8.09557 12.1528L9.34054 13.4142Z" fill="#CD6116" stroke="#CD6116" stroke-width="0.0546041" stroke-linecap="round" stroke-linejoin="round"/>
<path d="M8.0957 12.1528L9.38436 14.6646L9.34068 13.4142L8.0957 12.1528ZM14.6646 13.4142L14.61 14.6646L15.9041 12.1528L14.6646 13.4142ZM11.1699 12.2893L10.8805 13.8674L11.2409 15.7294L11.3228 13.2777L11.1699 12.2893ZM12.8353 12.2893L12.6879 13.2722L12.7534 15.7294L13.1193 13.8674L12.8353 12.2893Z" fill="#E4751F" stroke="#E4751F" stroke-width="0.0546041" stroke-linecap="round" stroke-linejoin="round"/>
<path d="M13.1202 13.8679L12.7543 15.7299L13.0164 15.9101L14.6109 14.6651L14.6655 13.4147L13.1202 13.8679ZM9.34155 13.4147L9.38524 14.6651L10.9797 15.9101L11.2418 15.7299L10.8814 13.8679L9.34155 13.4147Z" fill="#F6851B" stroke="#F6851B" stroke-width="0.0546041" stroke-linecap="round" stroke-linejoin="round"/>
<path d="M13.1487 17.6246L13.165 17.1168L13.0285 16.9967H10.97L10.8444 17.1168L10.8553 17.6246L9.13525 16.811L9.7359 17.3025L10.9536 18.1488H13.0449L14.268 17.3025L14.8687 16.811L13.1487 17.6246Z" fill="#C0AD9E" stroke="#C0AD9E" stroke-width="0.0546041" stroke-linecap="round" stroke-linejoin="round"/>
<path d="M13.0163 15.9094L12.7542 15.7292H11.2416L10.9795 15.9094L10.843 17.1162L10.9686 16.9961H13.0272L13.1637 17.1162L13.0163 15.9094Z" fill="#161616" stroke="#161616" stroke-width="0.0546041" stroke-linecap="round" stroke-linejoin="round"/>
<path d="M18.5004 9.53685L18.9646 7.309L18.2711 5.2395L13.0182 9.13824L15.0385 10.8473L17.8943 11.6828L18.5278 10.9456L18.2547 10.7491L18.6916 10.3505L18.353 10.0884L18.7899 9.75526L18.5004 9.53685ZM5.04053 7.309L5.50466 9.53685L5.2098 9.75526L5.64663 10.0884L5.31355 10.3505L5.75038 10.7491L5.47736 10.9456L6.10531 11.6828L8.9611 10.8473L10.9815 9.13824L5.72854 5.2395L5.04053 7.309Z" fill="#763D16" stroke="#763D16" stroke-width="0.0546041" stroke-linecap="round" stroke-linejoin="round"/>
<path d="M17.893 11.6837L15.0372 10.8482L15.9054 12.1533L14.6112 14.6651L16.3149 14.6432H18.854L17.893 11.6837ZM8.95972 10.8482L6.10392 11.6837L5.15381 14.6432H7.68744L9.38563 14.6651L8.09697 12.1533L8.95972 10.8482ZM12.8366 12.2898L13.0168 9.13913L13.8468 6.8949H10.161L10.9801 9.13913L11.1712 12.2898L11.2367 13.2836L11.2422 15.7298H12.7547L12.7656 13.2836L12.8366 12.2898Z" fill="#F6851B" stroke="#F6851B" stroke-width="0.0546041" stroke-linecap="round" stroke-linejoin="round"/>
</svg>
