<svg width="156" height="156" viewBox="0 0 156 156" fill="none" xmlns="http://www.w3.org/2000/svg">
<g clip-path="url(#clip0_493_599)">
<g filter="url(#filter0_f_493_599)">
<path d="M39 129.801C30.9217 123.751 24.3653 115.902 19.8519 106.875C15.3385 97.848 12.9924 87.893 13 77.8008C13 41.9013 42.1005 12.8008 78 12.8008C113.9 12.8008 143 41.9013 143 77.8008C143.008 87.893 140.662 97.848 136.148 106.875C131.635 115.902 125.078 123.751 117 129.801M50.5239 105.393C45.5045 99.7812 40.6248 91.245 39.4653 83.8061C38.3058 76.3671 39.3243 68.7516 42.3978 61.8787C45.4713 55.0059 50.4684 49.1695 56.7859 45.0743C63.1034 40.979 70.4713 38.7998 78 38.7998C85.5288 38.7998 92.8966 40.979 99.2142 45.0743C105.532 49.1695 110.529 55.0059 113.602 61.8787C116.676 68.7516 117.694 76.3671 116.535 83.8061C115.375 91.245 110.496 99.7812 105.476 105.393" stroke="white" stroke-width="1.5" stroke-linecap="round" stroke-linejoin="round"/>
<path d="M78.0001 58.8315C67.4503 58.8315 58.898 67.3838 58.898 77.9336C58.898 86.9771 65.1825 94.5528 73.6225 96.5317L55.7144 137.627C55.7144 137.627 64.0715 143.199 78.398 143.199C92.7246 143.199 101.082 137.627 101.082 137.627L82.3776 96.5317C90.8176 94.5528 97.1021 86.9771 97.1021 77.9336C97.1021 67.3838 88.5498 58.8315 78.0001 58.8315Z" stroke="white" stroke-width="1.5" stroke-linecap="round" stroke-linejoin="round"/>
</g>
<path d="M39 129.801C30.9217 123.751 24.3653 115.902 19.8519 106.875C15.3385 97.848 12.9924 87.893 13 77.8008C13 41.9013 42.1005 12.8008 78 12.8008C113.9 12.8008 143 41.9013 143 77.8008C143.008 87.893 140.662 97.848 136.148 106.875C131.635 115.902 125.078 123.751 117 129.801M50.5239 105.393C45.5045 99.7812 40.6248 91.245 39.4653 83.8061C38.3058 76.3671 39.3243 68.7516 42.3978 61.8787C45.4713 55.0059 50.4684 49.1695 56.7859 45.0743C63.1034 40.979 70.4713 38.7998 78 38.7998C85.5288 38.7998 92.8966 40.979 99.2142 45.0743C105.532 49.1695 110.529 55.0059 113.602 61.8787C116.676 68.7516 117.694 76.3671 116.535 83.8061C115.375 91.245 110.496 99.7812 105.476 105.393" stroke="white" stroke-width="2" stroke-linecap="round" stroke-linejoin="round"/>
<path d="M78.0001 58.8315C67.4503 58.8315 58.898 67.3838 58.898 77.9336C58.898 86.9771 65.1825 94.5528 73.6225 96.5317L55.7144 137.627C55.7144 137.627 64.0715 143.199 78.398 143.199C92.7246 143.199 101.082 137.627 101.082 137.627L82.3776 96.5317C90.8176 94.5528 97.1021 86.9771 97.1021 77.9336C97.1021 67.3838 88.5498 58.8315 78.0001 58.8315Z" stroke="white" stroke-width="2" stroke-linecap="round" stroke-linejoin="round"/>
</g>
<defs>
<filter id="filter0_f_493_599" x="0.25" y="0.0507812" width="155.5" height="155.898" filterUnits="userSpaceOnUse" color-interpolation-filters="sRGB">
<feFlood flood-opacity="0" result="BackgroundImageFix"/>
<feBlend mode="normal" in="SourceGraphic" in2="BackgroundImageFix" result="shape"/>
<feGaussianBlur stdDeviation="6" result="effect1_foregroundBlur_493_599"/>
</filter>
<clipPath id="clip0_493_599">
<rect width="156" height="156" fill="white"/>
</clipPath>
</defs>
</svg>
