<svg width="20" height="20" viewBox="0 0 20 20" fill="none" xmlns="http://www.w3.org/2000/svg">
<path d="M5.83333 13.3334C6.71739 13.3334 7.56523 12.9822 8.19036 12.357C8.81548 11.7319 9.16667 10.8841 9.16667 10C9.16667 9.11597 8.81548 8.26812 8.19036 7.643C7.56523 7.01788 6.71739 6.66669 5.83333 6.66669C4.94928 6.66669 4.10143 7.01788 3.47631 7.643C2.85119 8.26812 2.5 9.11597 2.5 10C2.5 10.8841 2.85119 11.7319 3.47631 12.357C4.10143 12.9822 4.94928 13.3334 5.83333 13.3334V13.3334ZM12.5 13.3334C13.4208 13.3334 14.1667 11.8417 14.1667 10C14.1667 8.15835 13.4208 6.66669 12.5 6.66669C11.5792 6.66669 10.8333 8.15835 10.8333 10C10.8333 11.8417 11.5792 13.3334 12.5 13.3334ZM16.6667 13.3334C17.1267 13.3334 17.5 11.8417 17.5 10C17.5 8.15835 17.1267 6.66669 16.6667 6.66669C16.2067 6.66669 15.8333 8.15835 15.8333 10C15.8333 11.8417 16.2067 13.3334 16.6667 13.3334Z" stroke="#CBCEFA" stroke-linecap="round" stroke-linejoin="round"/>
</svg>
