<svg width="60" height="59" viewBox="0 0 60 59" fill="none" xmlns="http://www.w3.org/2000/svg">
<g filter="url(#filter0_d_1_992)">
<rect x="18" y="15" width="24" height="24" rx="12" fill="#464EF3" fill-opacity="0.2"/>
<path d="M30.0368 25.5271C30.0368 25.4814 30.0377 25.4356 30.0399 25.3903C30.111 23.8082 31.4446 22.5475 33.0374 22.5439C33.0391 22.2484 33.006 22.0565 33.006 22.0497C33.0118 22.0497 33.0176 22.0493 33.023 22.0493C32.1281 22.0408 31.244 22.2188 30.4259 22.5632C30.1489 22.6798 29.88 22.8153 29.6204 22.9691C29.2943 23.1624 28.9838 23.3844 28.6929 23.6351C28.596 23.7185 28.5013 23.805 28.4088 23.8947L26.7839 22.992L25.8886 22.4951L24.4978 21.7233C23.3577 23.7817 24.0944 26.3774 26.1424 27.5241L24.1297 31.3818C24.1301 31.3818 24.1301 31.3822 24.1306 31.3822C24.979 31.828 25.8805 32.0666 26.7781 32.119C29.2648 32.2648 31.7238 30.9714 32.9546 28.6125L33.002 28.5107C32.9873 28.5107 32.9721 28.5107 32.9573 28.5103C31.34 28.4825 30.0368 27.1577 30.0368 25.5271Z" fill="url(#paint0_linear_1_992)"/>
<path d="M30.8104 27.2612C30.3583 26.7625 30.0719 26.1096 30.0397 25.3903C30.0375 25.4356 30.0366 25.4813 30.0366 25.527C30.0366 27.1576 31.3394 28.4828 32.9576 28.5102C32.975 28.5106 32.992 28.5106 33.0094 28.5106V28.2366C32.1382 28.2371 31.3541 27.8608 30.8104 27.2612Z" fill="#FFBF47"/>
<path d="M33.0022 22.5434C31.4095 22.547 30.1112 23.8081 30.0397 25.3902C30.0718 26.1096 30.3582 26.7625 30.8103 27.2612C31.3541 27.8608 32.1377 28.2371 33.0093 28.2371V22.543C33.0071 22.543 33.0049 22.543 33.0022 22.5434Z" fill="white"/>
<path d="M24.4979 21.7232L23.5535 21.1958C22.1225 23.7794 23.0656 27.0522 25.6394 28.4887L26.1478 27.5272C24.0954 26.3818 23.3569 23.7834 24.4979 21.7232Z" fill="#FFBF47"/>
<path d="M33.0063 26.1708V28.5091C33.0072 28.5091 33.0086 28.5091 33.0095 28.5091C34.1282 28.5077 35.0619 27.7144 35.2849 26.6578L33.0063 26.1708Z" fill="#FFAE3A"/>
<path d="M35.818 23.1262C35.1438 22.5118 34.2668 22.1185 33.3 22.0576C33.208 22.0526 33.116 22.0495 33.0239 22.0486C33.0181 22.0486 33.0123 22.049 33.007 22.049C33.007 22.0643 33.007 26.1708 33.007 26.1708L37.0895 27.0426C37.1453 26.7709 37.1753 26.4897 37.1753 26.2013C37.1744 24.9824 36.6512 23.8859 35.818 23.1262Z" fill="#FFBF47"/>
<path d="M29.6196 22.9685L28.6037 20.7064C27.6302 21.1473 26.9833 22.0164 26.7836 22.9918L28.4089 23.8936C28.7779 23.5353 29.1854 23.2259 29.6196 22.9685Z" fill="#3442D9"/>
<path d="M26.7838 22.9918C26.984 22.0164 27.6304 21.1473 28.604 20.7065L28.1978 19.8024C27.0237 20.3338 26.2133 21.341 25.8881 22.4945L26.7838 22.9918Z" fill="#FFBF47"/>
<path d="M22.8248 33.8796C24.1741 34.5904 25.8418 34.0688 26.55 32.7145C26.6509 32.5212 26.7264 32.3216 26.7783 32.1189C25.8803 32.0664 24.9791 31.8279 24.1307 31.3821L22.8248 33.8796Z" fill="#E35179"/>
<ellipse cx="32.0531" cy="25.3404" rx="0.532545" ry="0.534565" fill="#383B62"/>
</g>
<defs>
<filter id="filter0_d_1_992" x="0.857143" y="0.714286" width="58.2857" height="58.2857" filterUnits="userSpaceOnUse" color-interpolation-filters="sRGB">
<feFlood flood-opacity="0" result="BackgroundImageFix"/>
<feColorMatrix in="SourceAlpha" type="matrix" values="0 0 0 0 0 0 0 0 0 0 0 0 0 0 0 0 0 0 127 0" result="hardAlpha"/>
<feOffset dy="2.85714"/>
<feGaussianBlur stdDeviation="8.57143"/>
<feColorMatrix type="matrix" values="0 0 0 0 0 0 0 0 0 0 0 0 0 0 0 0 0 0 0.1 0"/>
<feBlend mode="normal" in2="BackgroundImageFix" result="effect1_dropShadow_1_992"/>
<feBlend mode="normal" in="SourceGraphic" in2="effect1_dropShadow_1_992" result="shape"/>
</filter>
<linearGradient id="paint0_linear_1_992" x1="23.9613" y1="21.7233" x2="23.9613" y2="32.1302" gradientUnits="userSpaceOnUse">
<stop stop-color="#4E53FF"/>
<stop offset="1" stop-color="#3442D9"/>
</linearGradient>
</defs>
</svg>
