<svg xmlns="http://www.w3.org/2000/svg" fill="none" viewBox="98 81 104 104">
<g filter="url(#filter0_d_1_1132)">
<rect x="98" y="81" width="104" height="104" rx="52" fill="white"/>
<path d="M154.111 122.269C154.111 122.041 154.116 121.813 154.127 121.587C154.481 113.701 161.128 107.418 169.068 107.4C169.076 105.927 168.911 104.97 168.911 104.936C168.94 104.936 168.969 104.934 168.996 104.934C164.535 104.892 160.128 105.779 156.051 107.496C154.67 108.077 153.33 108.752 152.036 109.519V109.519C150.41 110.482 148.863 111.589 147.413 112.838C146.93 113.254 146.457 113.685 145.997 114.132L137.897 109.633L133.435 107.156L126.502 103.309C120.819 113.569 124.491 126.507 134.699 132.223L124.667 151.452C124.67 151.452 124.67 151.454 124.672 151.454C128.901 153.676 133.395 154.865 137.868 155.126C150.263 155.853 162.52 149.406 168.655 137.648L168.891 137.141C168.818 137.141 168.742 137.141 168.669 137.139C160.607 137 154.111 130.397 154.111 122.269Z" fill="url(#paint0_linear_1_1132)"/>
<path d="M157.967 130.913C155.714 128.427 154.286 125.173 154.126 121.587C154.115 121.813 154.11 122.041 154.11 122.269C154.11 130.397 160.604 137.002 168.67 137.138C168.757 137.141 168.841 137.141 168.928 137.141V135.775C164.586 135.777 160.677 133.902 157.967 130.913Z" fill="#FFBF47"/>
<path d="M168.892 107.397C160.953 107.415 154.482 113.701 154.126 121.587C154.286 125.173 155.714 128.427 157.967 130.913C160.677 133.902 164.583 135.777 168.928 135.777V107.395C168.917 107.395 168.906 107.395 168.892 107.397Z" fill="white"/>
<path d="M126.503 103.309L121.796 100.68C114.663 113.558 119.364 129.872 132.193 137.031L134.727 132.239C124.497 126.53 120.816 113.578 126.503 103.309Z" fill="#FFBF47"/>
<path d="M168.912 125.478V137.133C168.917 137.133 168.924 137.133 168.928 137.133C174.504 137.126 179.158 133.172 180.27 127.905L168.912 125.478Z" fill="#FFAE3A"/>
<path d="M182.927 110.302C179.567 107.24 175.195 105.28 170.376 104.976C169.918 104.951 169.459 104.935 169 104.931C168.971 104.931 168.942 104.933 168.915 104.933C168.915 105.009 168.915 125.478 168.915 125.478L189.265 129.824C189.543 128.469 189.692 127.068 189.692 125.63C189.688 119.555 187.08 114.089 182.927 110.302Z" fill="#FFBF47"/>
<path d="M152.033 109.516L146.969 98.2411C142.117 100.438 138.892 104.771 137.897 109.632L145.998 114.128C147.837 112.342 149.868 110.799 152.033 109.516Z" fill="#3442D9"/>
<path d="M137.897 109.632C138.895 104.771 142.117 100.438 146.969 98.2411L144.945 93.7346C139.093 96.3835 135.053 101.404 133.432 107.153L137.897 109.632V109.632Z" fill="#FFBF47"/>
<path d="M118.163 163.902C124.889 167.445 133.202 164.845 136.731 158.095C137.235 157.131 137.611 156.137 137.869 155.126C133.393 154.865 128.901 153.675 124.673 151.453L118.163 163.902Z" fill="#E35179"/>
<ellipse cx="164.161" cy="121.338" rx="2.65446" ry="2.66453" fill="#383B62"/>
</g>
<defs>
<filter id="filter0_d_1_1132" x="0.857147" y="0.0476227" width="298.286" height="298.286" filterUnits="userSpaceOnUse" color-interpolation-filters="sRGB">
<feFlood flood-opacity="0" result="BackgroundImageFix"/>
<feColorMatrix in="SourceAlpha" type="matrix" values="0 0 0 0 0 0 0 0 0 0 0 0 0 0 0 0 0 0 127 0" result="hardAlpha"/>
<feOffset dy="16.1905"/>
<feGaussianBlur stdDeviation="48.5714"/>
<feColorMatrix type="matrix" values="0 0 0 0 0 0 0 0 0 0 0 0 0 0 0 0 0 0 0.1 0"/>
<feBlend mode="normal" in2="BackgroundImageFix" result="effect1_dropShadow_1_1132"/>
<feBlend mode="normal" in="SourceGraphic" in2="effect1_dropShadow_1_1132" result="shape"/>
</filter>
<linearGradient id="paint0_linear_1_1132" x1="123.828" y1="103.309" x2="123.828" y2="155.182" gradientUnits="userSpaceOnUse">
<stop stop-color="#4E53FF"/>
<stop offset="1" stop-color="#3442D9"/>
</linearGradient>
</defs>
</svg>