<svg width="24" height="24" viewBox="0 0 24 24" fill="none" xmlns="http://www.w3.org/2000/svg">
<path d="M12 22C17.5228 22 22 17.5228 22 12C22 6.47715 17.5228 2 12 2C6.47715 2 2 6.47715 2 12C2 17.5228 6.47715 22 12 22Z" fill="#131A51"/>
<path d="M14.3641 9.24201C13.8243 8.70222 12.8737 8.32675 12 8.30325M9.63593 14.3642C10.1438 15.0413 11.0881 15.4275 12 15.4603M12 8.30325C10.9605 8.27527 10.0299 8.74553 10.0299 10.03C10.0299 12.3941 14.3641 11.2121 14.3641 13.5761C14.3641 14.9245 13.2106 15.5038 12 15.4603M12 8.30325V6.87793M12 15.4603V17.1223" stroke="white" stroke-width="1.18204" stroke-linecap="round" stroke-linejoin="round"/>
</svg>
