<svg width="20" height="20" viewBox="0 0 20 20" fill="none" xmlns="http://www.w3.org/2000/svg">
<path d="M4.58325 13.3333C8.74992 15.4166 11.2499 15.4166 15.4166 13.3333M12.9166 14.5833L13.7499 16.25C13.7499 16.25 17.2258 15.1433 18.3333 13.3333C18.3333 12.5 18.7749 6.54415 15.8333 4.58331C14.5833 3.74998 12.4999 3.33331 12.4999 3.33331L11.6666 4.99998H9.99992" stroke="#CBCEFA" stroke-linecap="round" stroke-linejoin="round"/>
<path d="M7.10673 14.5833L6.27339 16.25C6.27339 16.25 2.79756 15.1433 1.69006 13.3333C1.69006 12.5 1.24839 6.54415 4.19006 4.58331C5.44006 3.74998 7.52339 3.33331 7.52339 3.33331L8.35673 4.99998H10.0234" stroke="#CBCEFA" stroke-linecap="round" stroke-linejoin="round"/>
<path d="M7.08325 11.6666C6.39325 11.6666 5.83325 10.9208 5.83325 9.99998C5.83325 9.07915 6.39325 8.33331 7.08325 8.33331C7.77325 8.33331 8.33325 9.07915 8.33325 9.99998C8.33325 10.9208 7.77325 11.6666 7.08325 11.6666ZM12.9166 11.6666C12.2266 11.6666 11.6666 10.9208 11.6666 9.99998C11.6666 9.07915 12.2266 8.33331 12.9166 8.33331C13.6066 8.33331 14.1666 9.07915 14.1666 9.99998C14.1666 10.9208 13.6066 11.6666 12.9166 11.6666Z" stroke="#CBCEFA" stroke-linecap="round" stroke-linejoin="round"/>
</svg>
