<svg width="20" height="20" viewBox="0 0 20 20" fill="none" xmlns="http://www.w3.org/2000/svg">
<path d="M13.3334 18.3558V15.9641C13.3647 15.5668 13.311 15.1673 13.1759 14.7923C13.0409 14.4173 12.8275 14.0753 12.5501 13.7891C15.1667 13.4975 17.9167 12.5058 17.9167 7.9558C17.9165 6.79233 17.469 5.67347 16.6667 4.8308C17.0466 3.81289 17.0198 2.68776 16.5917 1.68914C16.5917 1.68914 15.6084 1.39747 13.3334 2.92247C11.4234 2.40482 9.41007 2.40482 7.50008 2.92247C5.22508 1.39747 4.24175 1.68914 4.24175 1.68914C3.81373 2.68776 3.78687 3.81289 4.16675 4.8308C3.35852 5.67972 2.91052 6.80869 2.91675 7.9808C2.91675 12.4975 5.66675 13.4891 8.28341 13.8141C8.00925 14.0974 7.7978 14.4353 7.66284 14.8057C7.52788 15.1762 7.47242 15.5709 7.50008 15.9641V18.3558M7.50008 16.6891C5.00008 17.5 2.91675 16.6891 1.66675 14.1891" stroke="#CBCEFA" stroke-linecap="round" stroke-linejoin="round"/>
</svg>
