<svg width="121" height="35" viewBox="0 0 121 35" fill="none" xmlns="http://www.w3.org/2000/svg">
<path fill-rule="evenodd" clip-rule="evenodd" d="M43.8298 9.65347C44.3046 9.47341 44.9631 9.32724 45.8425 9.32724C50.6721 9.32724 54.9164 12.7358 54.9174 17.7755C54.9174 23.4318 50.8929 26.7677 45.2201 26.7677C42.4033 26.7677 40.0984 25.9333 38.6338 25.0272V0.446289H43.8298V9.65347ZM43.8298 21.8355C44.2695 22.0175 44.8547 22.1618 45.5866 22.1618C48.1474 22.1618 49.7576 20.4589 49.7576 17.9565C49.7576 15.5277 47.8553 13.8955 45.8054 13.8955C45.0736 13.8955 44.2324 14.1143 43.8298 14.3679V21.8355Z" fill="#FEFDFF"/>
<path fill-rule="evenodd" clip-rule="evenodd" d="M81.2472 12.4095L81.1016 9.83545H76.1616V26.2595H81.5032V19.7696C81.5032 15.818 84.1373 14.1501 86.9913 14.1501C87.2473 14.1501 87.3577 14.1501 87.4309 14.1501L87.4759 9.90612C84.7675 9.90515 82.2721 10.3427 81.2472 12.4095Z" fill="#FEFDFF"/>
<path fill-rule="evenodd" clip-rule="evenodd" d="M96.9162 4.72412L91.7944 6.64571V9.83546H89.8345L89.8696 14.1869H91.684V20.8936C91.684 24.1927 94.1716 26.548 97.8307 26.548C98.8927 26.548 99.8073 26.4037 100.355 26.1491L100.758 21.7997C100.283 21.9817 99.734 22.0533 99.0383 22.0533C97.8297 22.0533 96.9894 21.364 96.9894 20.1317V14.1869H101.709L102.111 9.83546H96.9152V4.72412H96.9162Z" fill="#FEFDFF"/>
<path fill-rule="evenodd" clip-rule="evenodd" d="M115.622 9.83556L113.135 16.2886C112.768 17.2673 112.439 18.2828 112.147 19.4426H112.073C111.744 18.247 111.414 17.1947 111.049 16.2528L108.596 9.83459H103.29L109.474 25.4242C107.901 29.1957 106.292 30.6817 103.73 31.5161L105.925 34.9595C109.913 33.9808 112.622 30.61 114.853 24.8443L120.673 9.83459H115.622V9.83556Z" fill="#FEFDFF"/>
<path fill-rule="evenodd" clip-rule="evenodd" d="M57.0854 17.9565C57.0854 12.6264 61.0748 9.32727 65.7216 9.32727C70.3323 9.32727 73.1502 12.4822 73.1502 15.8539C73.1502 16.3873 73.0358 17.4696 73.0358 17.4696C72.7046 19.6071 69.7168 19.6071 69.7168 19.6071L62.5384 19.5867C62.94 21.0378 64.4778 22.7058 67.4051 22.7058C69.3074 22.7058 70.772 22.2702 72.1995 21.4367L71.7227 25.8239C70.5893 26.368 68.9781 26.7668 66.7827 26.7668C61.3669 26.7668 57.0854 23.3215 57.0854 17.9565ZM62.3557 16.1811H68.2102C68.2473 16.0717 68.2473 15.9624 68.2473 15.8181C68.2473 14.5132 67.2605 13.3534 65.7226 13.3534C64.1125 13.3534 62.7221 14.5132 62.3557 16.1811Z" fill="#FEFDFF"/>
<path fill-rule="evenodd" clip-rule="evenodd" d="M15.7901 12.4758C15.7901 12.3761 15.7921 12.2764 15.7969 12.1777C15.9517 8.7296 18.8564 5.98228 22.3257 5.97446C22.3295 5.33039 22.2575 4.91208 22.2575 4.89742C22.2702 4.89742 22.2828 4.89644 22.2945 4.89644C20.3453 4.87787 18.4195 5.26588 16.6377 6.01648C16.0344 6.27059 15.4485 6.56575 14.8832 6.90098C14.1728 7.32222 13.4964 7.80601 12.8629 8.35234C12.6518 8.53413 12.4455 8.72276 12.244 8.91823L8.70475 6.95083L6.7546 5.86793L3.72524 4.18591C1.24181 8.67194 2.8465 14.3288 7.30733 16.8279L2.92338 25.235C2.92435 25.235 2.92435 25.236 2.92533 25.236C4.7733 26.2075 6.73708 26.7274 8.6921 26.8418C14.1085 27.1594 19.4647 24.3408 22.1456 19.1999L22.2488 18.9781C22.2167 18.9781 22.1836 18.9781 22.1515 18.9771C18.6287 18.9165 15.7901 16.0294 15.7901 12.4758Z" fill="#FEFDFF"/>
<path fill-rule="evenodd" clip-rule="evenodd" d="M17.4755 16.2552C16.4907 15.1684 15.8669 13.7454 15.7969 12.1777C15.792 12.2764 15.79 12.3761 15.79 12.4758C15.79 16.0295 18.6277 18.9175 22.1524 18.9771C22.1903 18.9781 22.2273 18.9781 22.2652 18.9781V18.381C20.3676 18.3819 18.6598 17.5619 17.4755 16.2552Z" fill="#FEFDFF"/>
<path fill-rule="evenodd" clip-rule="evenodd" d="M22.2497 5.97351C18.7805 5.98133 15.9526 8.72963 15.7969 12.1777C15.8669 13.7454 16.4907 15.1684 17.4755 16.2552C18.6598 17.5619 20.3667 18.3819 22.2653 18.3819V5.97253C22.2604 5.97253 22.2555 5.97253 22.2497 5.97351Z" fill="#020940"/>
<path fill-rule="evenodd" clip-rule="evenodd" d="M3.72546 4.18598L1.66826 3.03662C-1.44867 8.66712 0.605606 15.7998 6.21181 18.9302L7.31923 16.8348C2.84867 14.3387 1.24009 8.67591 3.72546 4.18598Z" fill="#FEFDFF"/>
<path fill-rule="evenodd" clip-rule="evenodd" d="M22.2578 13.8793V18.9752C22.2598 18.9752 22.2627 18.9752 22.2646 18.9752C24.7013 18.9722 26.7352 17.2433 27.2208 14.9407L22.2578 13.8793Z" fill="#FEFDFF"/>
<path fill-rule="evenodd" clip-rule="evenodd" d="M28.3817 7.24407C26.9133 5.90511 25.003 5.04797 22.8972 4.91505C22.6967 4.9043 22.4962 4.89746 22.2958 4.89551C22.2831 4.89551 22.2705 4.89649 22.2588 4.89649C22.2588 4.92971 22.2588 13.8793 22.2588 13.8793L31.1513 15.7792C31.2729 15.187 31.3381 14.5742 31.3381 13.9457C31.3362 11.2893 30.1966 8.8997 28.3817 7.24407Z" fill="#FEFDFF"/>
<path fill-rule="evenodd" clip-rule="evenodd" d="M14.8825 6.90008L12.6696 1.97034C10.5492 2.93107 9.14007 4.82517 8.70508 6.9509L12.2453 8.91634C13.0491 8.13544 13.9366 7.46107 14.8825 6.90008Z" fill="#FEFDFF"/>
<path fill-rule="evenodd" clip-rule="evenodd" d="M8.70503 6.95089C9.141 4.82516 10.5491 2.93106 12.6696 1.97033L11.785 0C9.2276 1.15816 7.46235 3.35328 6.75391 5.86701L8.70503 6.95089Z" fill="#FEFDFF"/>
<path fill-rule="evenodd" clip-rule="evenodd" d="M0.0810547 30.6789C3.01991 32.228 6.6526 31.0914 8.19502 28.1398C8.41494 27.7185 8.5794 27.2836 8.69229 26.8419C6.73629 26.7275 4.77349 26.2076 2.92551 25.2361L0.0810547 30.6789Z" fill="#FEFDFF"/>
<path fill-rule="evenodd" clip-rule="evenodd" d="M20.181 13.2343C20.8216 13.2343 21.3409 12.7127 21.3409 12.0693C21.3409 11.4259 20.8216 10.9043 20.181 10.9043C19.5403 10.9043 19.021 11.4259 19.021 12.0693C19.021 12.7127 19.5403 13.2343 20.181 13.2343Z" fill="#FEFDFF"/>
</svg>
