<svg width="156" height="156" viewBox="0 0 156 156" fill="none" xmlns="http://www.w3.org/2000/svg">
<g filter="url(#filter0_f_493_623)">
<path d="M29.9773 80.7703C28.1122 82.6354 25.5826 83.6832 22.9449 83.6832C20.3072 83.6832 17.7776 82.6354 15.9124 80.7703C14.0473 78.9052 12.9995 76.3755 12.9995 73.7379C12.9995 71.1002 14.0473 68.5705 15.9124 66.7054C17.7776 64.8403 20.3072 63.7925 22.9449 63.7925C25.5826 63.7925 28.1122 64.8403 29.9773 66.7054C31.8425 68.5705 32.8903 71.1002 32.8903 73.7379C32.8903 76.3755 31.8425 78.9052 29.9773 80.7703Z" stroke="white" stroke-width="1.5" stroke-linecap="round" stroke-linejoin="round"/>
<path d="M47.7371 127.656C45.872 129.521 43.3423 130.568 40.7047 130.568C38.067 130.568 35.5373 129.521 33.6722 127.656C31.8071 125.79 30.7593 123.261 30.7593 120.623C30.7593 117.985 31.8071 115.456 33.6722 113.591C35.5373 111.726 38.067 110.678 40.7047 110.678C43.3423 110.678 45.872 111.726 47.7371 113.591C49.6022 115.456 50.65 117.985 50.65 120.623C50.65 123.261 49.6022 125.79 47.7371 127.656Z" stroke="white" stroke-width="1.5" stroke-linecap="round" stroke-linejoin="round"/>
<path d="M140.087 66.5628C138.222 68.4279 135.692 69.4757 133.054 69.4757C130.417 69.4757 127.887 68.4279 126.022 66.5628C124.157 64.6977 123.109 62.168 123.109 59.5303C123.109 56.8927 124.157 54.363 126.022 52.4979C127.887 50.6328 130.417 49.585 133.054 49.585C135.692 49.585 138.222 50.6328 140.087 52.4979C141.952 54.363 143 56.8927 143 59.5303C143 62.168 141.952 64.6977 140.087 66.5628Z" stroke="white" stroke-width="1.5" stroke-linecap="round" stroke-linejoin="round"/>
<path d="M133.694 115.579C131.829 117.444 129.299 118.492 126.661 118.492C124.024 118.492 121.494 117.444 119.629 115.579C117.764 113.714 116.716 111.184 116.716 108.546C116.716 105.909 117.764 103.379 119.629 101.514C121.494 99.6489 124.024 98.6011 126.661 98.6011C129.299 98.6011 131.829 99.6489 133.694 101.514C135.559 103.379 136.607 105.909 136.607 108.546C136.607 111.184 135.559 113.714 133.694 115.579Z" stroke="white" stroke-width="1.5" stroke-linecap="round" stroke-linejoin="round"/>
<path d="M107.409 38.8577C105.544 40.7228 103.014 41.7706 100.377 41.7706C97.7389 41.7706 95.2092 40.7228 93.3441 38.8577C91.479 36.9926 90.4312 34.4629 90.4312 31.8253C90.4312 29.1876 91.479 26.6579 93.3441 24.7928C95.2092 22.9277 97.7389 21.8799 100.377 21.8799C103.014 21.8799 105.544 22.9277 107.409 24.7928C109.274 26.6579 110.322 29.1876 110.322 31.8253C110.322 34.4629 109.274 36.9926 107.409 38.8577Z" stroke="white" stroke-width="1.5" stroke-linecap="round" stroke-linejoin="round"/>
<path d="M96.7537 131.207C94.8886 133.072 92.3589 134.12 89.7213 134.12C87.0836 134.12 84.5539 133.072 82.6888 131.207C80.8237 129.342 79.7759 126.813 79.7759 124.175C79.7759 121.537 80.8237 119.008 82.6888 117.142C84.5539 115.277 87.0836 114.229 89.7213 114.229C92.3589 114.229 94.8886 115.277 96.7537 117.142C98.6188 119.008 99.6666 121.537 99.6666 124.175C99.6666 126.813 98.6188 129.342 96.7537 131.207Z" stroke="white" stroke-width="1.5" stroke-linecap="round" stroke-linejoin="round"/>
<path d="M32.5352 76.5796L117.071 104.64" stroke="white" stroke-width="1.5" stroke-linejoin="round"/>
<path d="M46.0322 112.098L94.6935 40.3496" stroke="white" stroke-width="1.5" stroke-linejoin="round"/>
<path d="M31.4692 78.7104L82.2617 117.426" stroke="white" stroke-width="1.5" stroke-linejoin="round"/>
<path d="M104.284 41.4155L122.754 99.3118" stroke="white" stroke-width="1.5" stroke-linejoin="round"/>
<path d="M127.016 67.6997L95.4043 115.651" stroke="white" stroke-width="1.5" stroke-linejoin="round"/>
<path d="M71.8899 94.2674C70.0248 96.1325 67.4952 97.1803 64.8575 97.1803C62.2198 97.1803 59.6902 96.1325 57.825 94.2674C55.9599 92.4022 54.9121 89.8726 54.9121 87.2349C54.9121 84.5972 55.9599 82.0676 57.825 80.2025C59.6902 78.3374 62.2198 77.2896 64.8575 77.2896C67.4952 77.2896 70.0248 78.3374 71.8899 80.2025C73.7551 82.0676 74.8029 84.5972 74.8029 87.2349C74.8029 89.8726 73.7551 92.4022 71.8899 94.2674Z" stroke="white" stroke-width="1.5" stroke-linecap="round" stroke-linejoin="round"/>
</g>
<path d="M29.9773 80.7703C28.1122 82.6354 25.5826 83.6832 22.9449 83.6832C20.3072 83.6832 17.7776 82.6354 15.9124 80.7703C14.0473 78.9052 12.9995 76.3755 12.9995 73.7379C12.9995 71.1002 14.0473 68.5705 15.9124 66.7054C17.7776 64.8403 20.3072 63.7925 22.9449 63.7925C25.5826 63.7925 28.1122 64.8403 29.9773 66.7054C31.8425 68.5705 32.8903 71.1002 32.8903 73.7379C32.8903 76.3755 31.8425 78.9052 29.9773 80.7703Z" stroke="white" stroke-width="2" stroke-linecap="round" stroke-linejoin="round"/>
<path d="M47.7371 127.656C45.872 129.521 43.3423 130.568 40.7047 130.568C38.067 130.568 35.5373 129.521 33.6722 127.656C31.8071 125.79 30.7593 123.261 30.7593 120.623C30.7593 117.985 31.8071 115.456 33.6722 113.591C35.5373 111.726 38.067 110.678 40.7047 110.678C43.3423 110.678 45.872 111.726 47.7371 113.591C49.6022 115.456 50.65 117.985 50.65 120.623C50.65 123.261 49.6022 125.79 47.7371 127.656Z" stroke="white" stroke-width="2" stroke-linecap="round" stroke-linejoin="round"/>
<path d="M140.087 66.5628C138.222 68.4279 135.692 69.4757 133.054 69.4757C130.417 69.4757 127.887 68.4279 126.022 66.5628C124.157 64.6977 123.109 62.168 123.109 59.5303C123.109 56.8927 124.157 54.363 126.022 52.4979C127.887 50.6328 130.417 49.585 133.054 49.585C135.692 49.585 138.222 50.6328 140.087 52.4979C141.952 54.363 143 56.8927 143 59.5303C143 62.168 141.952 64.6977 140.087 66.5628Z" stroke="white" stroke-width="2" stroke-linecap="round" stroke-linejoin="round"/>
<path d="M133.694 115.579C131.829 117.444 129.299 118.492 126.661 118.492C124.024 118.492 121.494 117.444 119.629 115.579C117.764 113.714 116.716 111.184 116.716 108.546C116.716 105.909 117.764 103.379 119.629 101.514C121.494 99.6489 124.024 98.6011 126.661 98.6011C129.299 98.6011 131.829 99.6489 133.694 101.514C135.559 103.379 136.607 105.909 136.607 108.546C136.607 111.184 135.559 113.714 133.694 115.579Z" stroke="white" stroke-width="2" stroke-linecap="round" stroke-linejoin="round"/>
<path d="M107.409 38.8577C105.544 40.7228 103.014 41.7706 100.377 41.7706C97.7389 41.7706 95.2092 40.7228 93.3441 38.8577C91.479 36.9926 90.4312 34.4629 90.4312 31.8253C90.4312 29.1876 91.479 26.6579 93.3441 24.7928C95.2092 22.9277 97.7389 21.8799 100.377 21.8799C103.014 21.8799 105.544 22.9277 107.409 24.7928C109.274 26.6579 110.322 29.1876 110.322 31.8253C110.322 34.4629 109.274 36.9926 107.409 38.8577Z" stroke="white" stroke-width="2" stroke-linecap="round" stroke-linejoin="round"/>
<path d="M96.7537 131.207C94.8886 133.072 92.3589 134.12 89.7213 134.12C87.0836 134.12 84.5539 133.072 82.6888 131.207C80.8237 129.342 79.7759 126.813 79.7759 124.175C79.7759 121.537 80.8237 119.008 82.6888 117.142C84.5539 115.277 87.0836 114.229 89.7213 114.229C92.3589 114.229 94.8886 115.277 96.7537 117.142C98.6188 119.008 99.6666 121.537 99.6666 124.175C99.6666 126.813 98.6188 129.342 96.7537 131.207Z" stroke="white" stroke-width="2" stroke-linecap="round" stroke-linejoin="round"/>
<path d="M32.5352 76.5796L117.071 104.64" stroke="white" stroke-width="2" stroke-linejoin="round"/>
<path d="M46.0322 112.098L94.6935 40.3496" stroke="white" stroke-width="2" stroke-linejoin="round"/>
<path d="M31.4692 78.7104L82.2617 117.426" stroke="white" stroke-width="2" stroke-linejoin="round"/>
<path d="M104.284 41.4155L122.754 99.3118" stroke="white" stroke-width="2" stroke-linejoin="round"/>
<path d="M127.016 67.6997L95.4043 115.651" stroke="white" stroke-width="2" stroke-linejoin="round"/>
<path d="M71.8899 94.2674C70.0248 96.1325 67.4952 97.1803 64.8575 97.1803C62.2198 97.1803 59.6902 96.1325 57.825 94.2674C55.9599 92.4022 54.9121 89.8726 54.9121 87.2349C54.9121 84.5972 55.9599 82.0676 57.825 80.2025C59.6902 78.3374 62.2198 77.2896 64.8575 77.2896C67.4952 77.2896 70.0248 78.3374 71.8899 80.2025C73.7551 82.0676 74.8029 84.5972 74.8029 87.2349C74.8029 89.8726 73.7551 92.4022 71.8899 94.2674Z" fill="#313763" stroke="white" stroke-width="2" stroke-linecap="round" stroke-linejoin="round"/>
<defs>
<filter id="filter0_f_493_623" x="0.249512" y="9.12988" width="155.5" height="137.74" filterUnits="userSpaceOnUse" color-interpolation-filters="sRGB">
<feFlood flood-opacity="0" result="BackgroundImageFix"/>
<feBlend mode="normal" in="SourceGraphic" in2="BackgroundImageFix" result="shape"/>
<feGaussianBlur stdDeviation="6" result="effect1_foregroundBlur_493_623"/>
</filter>
</defs>
</svg>
