<svg width="20" height="20" viewBox="0 0 20 20" fill="none" xmlns="http://www.w3.org/2000/svg">
<path d="M19.1666 2.50832C19.1666 2.50832 17.4849 3.50165 16.5499 3.78332C16.048 3.20624 15.381 2.79723 14.6391 2.61159C13.8972 2.42595 13.1162 2.47265 12.4017 2.74536C11.6871 3.01808 11.0736 3.50365 10.6441 4.13642C10.2145 4.76918 9.98967 5.5186 9.99992 6.28332V7.11665C8.53545 7.15463 7.08431 6.82983 5.77576 6.17119C4.46721 5.51255 3.34185 4.54052 2.49992 3.34165C2.49992 3.34165 -0.833415 10.8417 6.66659 14.175C4.95036 15.34 2.90588 15.9241 0.833252 15.8417C8.33325 20.0083 17.4999 15.8417 17.4999 6.25832C17.4999 6.02665 17.4766 5.79499 17.4333 5.56665C18.2833 4.72832 19.1666 2.50832 19.1666 2.50832Z" stroke="#CBCEFA" stroke-linecap="round" stroke-linejoin="round"/>
</svg>
